<!--?xml version="1.0" encoding="UTF-8"?-->
<svg width="320px" height="356px" viewBox="0 0 320 356" version="1.1" xmlns="http://www.w3.org/2000/svg" xmlns:xlink="http://www.w3.org/1999/xlink" style="">
    <!-- Generator: Sketch 49.3 (51167) - http://www.bohemiancoding.com/sketch -->
    <title>Group 2</title>
    <desc>Created with Sketch.</desc>
    <defs>
        <path id="path-1" d="M15,50.9544919L132.943694,17L151.79101,315.563365L15,315.563365Z" class="BgVeVSoF_0"></path>
        <path id="path-2" d="M92,244L223,244L238.017174,336L62,336Z" class="BgVeVSoF_1"></path>
        <path id="path-3" d="M210,19.3073568L268.017224,9L314.28526,307.543058L210,307.543058Z" class="BgVeVSoF_2"></path>
        <path id="path-4" width="58" height="35" d="M 56,89 L 80,89 A 17,17,0,0,1,97,106 L 97,107 A 17,17,0,0,1,80,124 L 56,124 A 17,17,0,0,1,39,107 L 39,106 A 17,17,0,0,1,56,89" class="BgVeVSoF_3"></path>
    </defs>
    <g id="Page-1" stroke="none" stroke-width="1" fill="none" fill-rule="evenodd">
        <g id="Artboard-2" transform="translate(-75.000000, -98.000000)">
            <g id="Group-2" transform="translate(80.000000, 103.000000)">
                <path id="Rectangle" fill="#DAE4BC" width="153" height="258" d="M105 17 L258 17 L258 275 L105 275 Z" class="BgVeVSoF_4"></path>
                <g id="Rectangle-3">
                    <use fill="#FF6161" fill-rule="evenodd" xlink:href="#path-1"></use>
                    <path stroke="#000000" stroke-width="10" d="M20,54.7181292 L20,310.563365 L146.465424,310.563365 L128.345754,23.5267623 L20,54.7181292 Z" class="BgVeVSoF_5"></path>
                </g>
                <g id="Rectangle-2" transform="translate(150.008587, 290.000000) scale(-1, 1) translate(-150.008587, -290.000000) ">
                    <use fill="#35A4FF" fill-rule="evenodd" xlink:href="#path-2"></use>
                    <path stroke="#FFFFFF" stroke-width="10" d="M95.6286828,249 L68.8895523,331 L232.134851,331 L218.749978,249 L95.6286828,249 Z" class="BgVeVSoF_6"></path>
                </g>
                <path id="Path-14" stroke="#000000" stroke-width="10" d="M123.914751,161L58,345L200.283464,340.335457L200.283464,220.431741Z" class="BgVeVSoF_7"></path>
                <path d="M43,190 C43,236.944204 81.0557963,275 128,275 C174.944204,275 213,236.944204 213,190" id="Oval-11" stroke="#000000" stroke-width="10" class="BgVeVSoF_8"></path>
                <g id="Rectangle-3">
                    <use fill="#08B264" fill-rule="evenodd" xlink:href="#path-3"></use>
                    <path stroke="#000000" stroke-width="10" d="M215,23.4973503 L215,302.543058 L308.450672,302.543058 L263.859055,14.8170365 L215,23.4973503 Z" class="BgVeVSoF_9"></path>
                </g>
                <path d="M36,0 C36,17.673112 77.189803,32 128,32 C178.810197,32 220,17.673112 220,0" id="Oval-11-Copy" stroke="#000000" stroke-width="10" fill="#08B264" transform="translate(128.000000, 16.000000) scale(1, -1) translate(-128.000000, -16.000000) " class="BgVeVSoF_10"></path>
                <path d="M36,32 C36,14.8791728 83.2339589,1 141.5,1 C199.766041,1 247,14.8791728 247,32" id="Oval-11-Copy-2" stroke="#000000" stroke-width="10" transform="translate(141.500000, 16.500000) scale(1, -1) translate(-141.500000, -16.500000) " class="BgVeVSoF_11"></path>
                <path d="M186.283737,120.25 C197.065711,120.25 206.826957,115.708333 215.567474,106.625 C206.826957,97.5416667 197.065711,93 186.283737,93 C175.501763,93 165.740517,97.5416667 157,106.625 C165.740517,115.708333 175.501763,120.25 186.283737,120.25 Z" id="Oval-8-Copy-5" stroke="#000000" stroke-width="10" fill="#F1E74B" class="BgVeVSoF_12"></path>
                <path id="Oval-13" fill="#000000" d="M176,107A10,10 0,1,1 196,107A10,10 0,1,1 176,107" class="BgVeVSoF_13"></path>
                <path id="Oval-10" stroke="#000000" stroke-width="10" d="M147,108A36,36 0,1,1 219,108A36,36 0,1,1 147,108" class="BgVeVSoF_14"></path>
                <path d="M64,142 C83.882251,142 100,125.882251 100,106 C100,86.117749 83.882251,80 64,80 C44.117749,80 28,86.117749 28,106 C28,125.882251 44.117749,142 64,142 Z" id="Oval-10-Copy-2" stroke="#FFFFFF" stroke-width="10" opacity="0.708842844" class="BgVeVSoF_15"></path>
                <path id="Path-9" stroke="#000000" stroke-width="10" d="M122,81L105,183L139.751397,183" class="BgVeVSoF_16"></path>
                <path d="M81,212.222949 C100.447032,218.664277 113.556491,222.081616 120.328377,222.474964 C137.15938,223.452602 153.009112,213.953935 159.190317,210" id="Path-10" stroke="#000000" stroke-width="10" class="BgVeVSoF_17"></path>
                <path d="M0,174.265308 C0,174.265308 11.6666667,174.265308 35,174.265308 L35,116 L0,116" id="Oval-8-Copy-6" stroke="#000000" stroke-width="10" fill="#35A4FF" transform="translate(17.500000, 145.132654) scale(-1, 1) translate(-17.500000, -145.132654) " class="BgVeVSoF_18"></path>
                <path d="M145.051903,111.5 C145.051903,99.0735931 134.966691,89 122.525952,89 C110.085212,89 100,99.0735931 100,111.5" id="Oval-10-Copy" stroke="#FFFFFF" stroke-width="10" class="BgVeVSoF_19"></path>
                <path d="M230,144 C245.463973,144 258,131.687831 258,116.5 C258,101.312169 245.463973,89 230,89" id="Oval-8" stroke="#000000" stroke-width="10" fill="#35A4FF" class="BgVeVSoF_20"></path>
                <path d="M208,80 L253,91" id="Path-11" stroke="#FFFFFF" stroke-width="10" opacity="0.708842844" class="BgVeVSoF_21"></path>
                <path d="M39,85 L10,116" id="Path-11" stroke="#FFFFFF" stroke-width="10" opacity="0.708842844" class="BgVeVSoF_22"></path>
                <path d="M53,55.6493019 L210,48" id="Path-13" stroke="#000000" stroke-width="10" class="BgVeVSoF_23"></path>
                <g id="Rectangle-6">
                    <use fill="#F1E74B" fill-rule="evenodd" xlink:href="#path-4"></use>
                    <path stroke="#000000" stroke-width="10" width="48" height="25" d="M 56,94 L 80,94 A 12,12,0,0,1,92,106 L 92,107 A 12,12,0,0,1,80,119 L 56,119 A 12,12,0,0,1,44,107 L 44,106 A 12,12,0,0,1,56,94" class="BgVeVSoF_24"></path>
                </g>
                <path id="Oval-13-Copy" fill="#000000" d="M58,107A10,10 0,1,1 78,107A10,10 0,1,1 58,107" class="BgVeVSoF_25"></path>
                <path id="Path-15" stroke="#000000" stroke-width="10" d="M222,283.966648L231.002757,141L260.553942,280.286959" class="BgVeVSoF_26"></path>
                <path d="M27,289.135524 L27,189" id="Path-16" stroke="#000000" stroke-width="10" class="BgVeVSoF_27"></path>
            </g>
        </g>
    </g>
<style data-made-with="vivus-instant">.BgVeVSoF_0{stroke-dasharray:824 826;stroke-dashoffset:825;animation:BgVeVSoF_draw 4000ms ease-in-out 0ms forwards;}.BgVeVSoF_1{stroke-dasharray:498 500;stroke-dashoffset:499;animation:BgVeVSoF_draw 4000ms ease-in-out 0ms forwards;}.BgVeVSoF_2{stroke-dasharray:754 756;stroke-dashoffset:755;animation:BgVeVSoF_draw 4000ms ease-in-out 0ms forwards;}.BgVeVSoF_3{stroke-dasharray:157 159;stroke-dashoffset:158;animation:BgVeVSoF_draw 4000ms ease-in-out 0ms forwards;}.BgVeVSoF_4{stroke-dasharray:822 824;stroke-dashoffset:823;animation:BgVeVSoF_draw 4000ms ease-in-out 0ms forwards;}.BgVeVSoF_5{stroke-dasharray:783 785;stroke-dashoffset:784;animation:BgVeVSoF_draw 4000ms ease-in-out 0ms forwards;}.BgVeVSoF_6{stroke-dasharray:456 458;stroke-dashoffset:457;animation:BgVeVSoF_draw 4000ms ease-in-out 0ms forwards;}.BgVeVSoF_7{stroke-dasharray:555 557;stroke-dashoffset:556;animation:BgVeVSoF_draw 4000ms ease-in-out 0ms forwards;}.BgVeVSoF_8{stroke-dasharray:268 270;stroke-dashoffset:269;animation:BgVeVSoF_draw 4000ms ease-in-out 0ms forwards;}.BgVeVSoF_9{stroke-dasharray:714 716;stroke-dashoffset:715;animation:BgVeVSoF_draw 4000ms ease-in-out 0ms forwards;}.BgVeVSoF_10{stroke-dasharray:207 209;stroke-dashoffset:208;animation:BgVeVSoF_draw 4000ms ease-in-out 0ms forwards;}.BgVeVSoF_11{stroke-dasharray:231 233;stroke-dashoffset:232;animation:BgVeVSoF_draw 4000ms ease-in-out 0ms forwards;}.BgVeVSoF_12{stroke-dasharray:133 135;stroke-dashoffset:134;animation:BgVeVSoF_draw 4000ms ease-in-out 0ms forwards;}.BgVeVSoF_13{stroke-dasharray:63 65;stroke-dashoffset:64;animation:BgVeVSoF_draw 4000ms ease-in-out 0ms forwards;}.BgVeVSoF_14{stroke-dasharray:227 229;stroke-dashoffset:228;animation:BgVeVSoF_draw 4000ms ease-in-out 0ms forwards;}.BgVeVSoF_15{stroke-dasharray:215 217;stroke-dashoffset:216;animation:BgVeVSoF_draw 4000ms ease-in-out 0ms forwards;}.BgVeVSoF_16{stroke-dasharray:139 141;stroke-dashoffset:140;animation:BgVeVSoF_draw 4000ms ease-in-out 0ms forwards;}.BgVeVSoF_17{stroke-dasharray:83 85;stroke-dashoffset:84;animation:BgVeVSoF_draw 4000ms ease-in-out 0ms forwards;}.BgVeVSoF_18{stroke-dasharray:129 131;stroke-dashoffset:130;animation:BgVeVSoF_draw 4000ms ease-in-out 0ms forwards;}.BgVeVSoF_19{stroke-dasharray:71 73;stroke-dashoffset:72;animation:BgVeVSoF_draw 4000ms ease-in-out 0ms forwards;}.BgVeVSoF_20{stroke-dasharray:88 90;stroke-dashoffset:89;animation:BgVeVSoF_draw 4000ms ease-in-out 0ms forwards;}.BgVeVSoF_21{stroke-dasharray:47 49;stroke-dashoffset:48;animation:BgVeVSoF_draw 4000ms ease-in-out 0ms forwards;}.BgVeVSoF_22{stroke-dasharray:43 45;stroke-dashoffset:44;animation:BgVeVSoF_draw 4000ms ease-in-out 0ms forwards;}.BgVeVSoF_23{stroke-dasharray:158 160;stroke-dashoffset:159;animation:BgVeVSoF_draw 4000ms ease-in-out 0ms forwards;}.BgVeVSoF_24{stroke-dasharray:126 128;stroke-dashoffset:127;animation:BgVeVSoF_draw 4000ms ease-in-out 0ms forwards;}.BgVeVSoF_25{stroke-dasharray:63 65;stroke-dashoffset:64;animation:BgVeVSoF_draw 4000ms ease-in-out 0ms forwards;}.BgVeVSoF_26{stroke-dasharray:286 288;stroke-dashoffset:287;animation:BgVeVSoF_draw 4000ms ease-in-out 0ms forwards;}.BgVeVSoF_27{stroke-dasharray:101 103;stroke-dashoffset:102;animation:BgVeVSoF_draw 4000ms ease-in-out 0ms forwards;}@keyframes BgVeVSoF_draw{100%{stroke-dashoffset:0;}}@keyframes BgVeVSoF_fade{0%{stroke-opacity:1;}95.1219512195122%{stroke-opacity:1;}100%{stroke-opacity:0;}}</style></svg>