<?xml version="1.0" encoding="UTF-8"?>
<svg width="500px" height="500px" viewBox="0 0 500 500" version="1.1" xmlns="http://www.w3.org/2000/svg" xmlns:xlink="http://www.w3.org/1999/xlink">
    <!-- Generator: Sketch 49.3 (51167) - http://www.bohemiancoding.com/sketch -->
    <title>tuneup</title>
    <desc>Created with Sketch.</desc>
    <defs>
        <path d="M0,100 C0,44.771525 44.771525,0 100,0 C155.228475,0 200,44.771525 200,100 L200,378 C200,394.568542 186.568542,408 170,408 L30,408 C13.4314575,408 2.02906125e-15,394.568542 0,378 L0,100 Z" id="path-1"></path>
    </defs>
    <g id="Page-1" stroke="none" stroke-width="1" fill="none" fill-rule="evenodd">
        <g id="tuneup">
            <rect id="Rectangle-2" fill="#111C32" x="0" y="0" width="500" height="500"></rect>
            <rect id="Rectangle-6" fill="#111C32" fill-rule="nonzero" x="150" y="184" width="200" height="122"></rect>
            <g id="Path-2" transform="translate(150.000000, 46.000000)">
                <g id="Mask" fill="#1F425E" fill-rule="nonzero">
                    <path d="M0,100 C0,44.771525 44.771525,0 100,0 C155.228475,0 200,44.771525 200,100 L200,378 C200,394.568542 186.568542,408 170,408 L30,408 C13.4314575,408 2.02906125e-15,394.568542 0,378 L0,100 Z" id="path-1"></path>
                </g>
                <g id="Triangle-Clipped">
                    <mask id="mask-2" fill="white">
                        <use xlink:href="#path-1"></use>
                    </mask>
                    <g id="path-1"></g>
                    <polygon id="Triangle" fill="#111C32" fill-rule="nonzero" opacity="0.610677083" mask="url(#mask-2)" transform="translate(101.000000, 31.000000) scale(-1, 1) rotate(-180.000000) translate(-101.000000, -31.000000) " points="101 0 160 62 42 62"></polygon>
                </g>
            </g>
            <path d="M180.007202,146 C180.002406,145.667231 180,145.333893 180,145 C180,106.892352 211.340068,76 250,76 C288.659932,76 320,106.892352 320,145 C320,145.333893 319.997594,145.667231 319.992798,146 L180.007202,146 Z" id="Combined-Shape" fill="#111C32" fill-rule="nonzero"></path>
            <path d="M180.007202,430 C180.002406,429.667231 180,429.333893 180,429 C180,390.892352 211.340068,360 250,360 C288.659932,360 320,390.892352 320,429 C320,429.333893 319.997594,429.667231 319.992798,430 L180.007202,430 Z" id="Combined-Shape-Copy" fill="#111C32" fill-rule="nonzero" transform="translate(250.000000, 395.000000) scale(-1, 1) rotate(-180.000000) translate(-250.000000, -395.000000) "></path>
            <rect id="Rectangle-4" fill="#111C32" fill-rule="nonzero" x="180" y="326" width="140" height="34"></rect>
            <path d="M180,144 L320,144 C320,151.731986 313.731986,158 306,158 L194,158 C186.268013,158 180,151.731986 180,144 Z" id="Rectangle-2" fill="#BFFFB0" fill-rule="nonzero"></path>
            <path d="M242.869209,378.972396 C245.539067,378.972396 248.042671,379.659047 250.20947,380.862767 L250.047466,380.638045 L250.140192,344.02601 L254.769022,344.017686 L254.769022,344 L272,344 L272,358.169949 L257.350375,358.169949 C257.405797,369.913776 257.737266,381.795984 257.737266,393.487753 C257.737266,401.502842 251.081263,408 242.869174,408 C234.656012,408 228,401.502825 228,393.487753 C228,385.469537 234.656003,378.972336 242.869174,378.972336 L242.869209,378.972396 Z" id="Shape" fill="#BFFFB0" fill-rule="nonzero"></path>
            <path d="M170.703385,203.6 L168.687385,214.112 L155.439385,214.112 L147.663385,254 L136.503385,254 L144.279385,214.112 L130.959385,214.112 L132.975385,203.6 L170.703385,203.6 Z M177.404923,255.08 C171.428923,255.08 166.388923,251.984 166.388923,244.352 C166.388923,242.768 166.604923,241.112 166.964923,239.24 L170.708923,220.736 L181.796923,220.736 L178.556923,237.512 C178.340923,238.736 178.196923,239.744 178.196923,240.68 C178.196923,244.352 180.356923,245.576 182.732923,245.576 C186.332923,245.576 189.284923,242.912 190.436923,236.792 L193.532923,220.736 L204.476923,220.736 L197.996923,254 L187.412923,254 L188.420923,248.6 L188.276923,248.6 C185.396923,252.992 182.300923,255.08 177.404923,255.08 Z M204.554462,254 L211.034462,220.736 L221.690462,220.736 L220.682462,225.776 L220.826462,225.776 C223.778462,221.888 227.378462,219.656 232.274462,219.656 C238.682462,219.656 242.858462,223.184 242.858462,230.456 C242.858462,231.824 242.714462,234.344 242.210462,236.936 L238.754462,254 L227.954462,254 L231.050462,237.728 C231.338462,236.432 231.554462,235.136 231.554462,233.912 C231.554462,230.24 229.610462,228.728 226.298462,228.728 C222.698462,228.728 219.890462,230.672 218.666462,237.296 L215.426462,254 L204.554462,254 Z M281.96,233.12 C281.96,235.136 281.672,237.368 280.952,239.96 L257.12,239.96 C257.624,243.848 259.928,245.936 264.536,245.936 C268.784,245.936 272.312,244.424 274.76,242.984 L278.144,251.48 C273.968,253.64 269.288,255.08 263.816,255.08 C253.448,255.08 246.536,249.032 246.536,239.096 C246.536,229.88 252.44,219.728 266.264,219.728 C275.696,219.728 281.96,224.552 281.96,233.12 Z M271.232,233.552 C271.304,233.12 271.304,232.76 271.304,232.256 C271.304,229.232 269.144,227.432 265.76,227.432 C261.872,227.432 258.992,229.808 257.696,233.552 L271.232,233.552 Z M335.893538,203.6 L330.061538,233.624 C327.829538,245.288 321.637538,254.936 305.869538,254.936 C293.341538,254.936 286.789538,248.816 286.789538,238.016 C286.789538,236.072 287.005538,234.056 287.437538,231.896 L292.837538,203.6 L304.789538,203.6 L299.389538,231.32 C299.101538,232.76 299.029538,234.056 299.029538,235.28 C299.029538,240.968 301.981538,243.776 306.949538,243.776 C314.005538,243.776 317.245538,238.16 318.325538,232.616 L323.941538,203.6 L335.893538,203.6 Z M330.139077,268.4 L339.499077,220.736 L350.371077,220.736 L349.507077,225.128 L349.651077,225.128 C352.099077,222.032 356.059077,219.656 360.883077,219.656 C367.435077,219.656 374.491077,223.904 374.491077,235.28 C374.491077,246.44 367.579077,255.08 356.491077,255.08 C350.731077,255.08 347.059077,252.416 345.115077,248.24 L344.971077,248.24 L341.011077,268.4 L330.139077,268.4 Z M354.691077,245.144 C359.875077,245.144 363.043077,241.112 363.043077,236.576 C363.043077,231.896 359.659077,229.592 355.627077,229.592 C350.443077,229.592 347.275077,233.624 347.275077,238.16 C347.275077,242.84 350.659077,245.144 354.691077,245.144 Z" id="TuneUp" fill="#FFFFFF" fill-rule="nonzero"></path>
            <rect id="Rectangle" fill="#BFFFB0" fill-rule="nonzero" x="112" y="274" width="276" height="14"></rect>
        </g>
    </g>
</svg>